<?xml version="1.0"?>
<svg xmlns="http://www.w3.org/2000/svg" viewBox="0 0 64 64" fill="#ffffff" width="512" height="512"><g id="Bitcoin-5" data-name="Bitcoin"><path d="M14,34a1,1,0,0,0-1,1v8a1,1,0,0,0,2,0V35A1,1,0,0,0,14,34Z"/><path d="M61,56H60V53a1,1,0,0,0-1-1H58V49a1,1,0,0,0-1-1H56V46a1,1,0,0,0-1-1H54V33h1a1,1,0,0,0,1-1V30a1,1,0,0,0,1-1V26h1a1,1,0,0,0,1-1V22.758c.084.007.167.032.251.032a2.755,2.755,0,0,0,1.328-5.165l-28.1-15.5a.994.994,0,0,0-.966,0l-28.1,15.5A2.754,2.754,0,0,0,2,20.036a2.713,2.713,0,0,0,3,2.719V25a1,1,0,0,0,1,1H7v3a1,1,0,0,0,1,1v2a1,1,0,0,0,1,1h1V45H9a1,1,0,0,0-1,1v2H7a1,1,0,0,0-1,1v3H5a1,1,0,0,0-1,1v3H3a1,1,0,0,0-1,1v4a1,1,0,0,0,1,1H61a1,1,0,0,0,1-1V57A1,1,0,0,0,61,56Zm-5-6v2H44V50ZM21,48H20V46a1,1,0,0,0-1-1H18V33h1a1,1,0,0,0,1-1V30a1,1,0,0,0,1-1V26H43v3a1,1,0,0,0,1,1v2a1,1,0,0,0,1,1h1V45H45a1,1,0,0,0-1,1v2H43a1,1,0,0,0-1,1v3H22V49A1,1,0,0,0,21,48ZM10,31V30h8v1ZM54,47v1H46V47Zm-6-2V33h4V45Zm6-14H46V30h8Zm1-3H45V26H55ZM5.113,20.692A.749.749,0,0,1,4,20.033a.749.749,0,0,1,.388-.657L32,4.142,59.612,19.376a.751.751,0,0,1,.388.66.749.749,0,0,1-1.112.656L32.483,6.125a.994.994,0,0,0-.966,0ZM51.68,19H12.32L32,8.142ZM7,24V21.935L8.7,21h46.61l1.7.935V24Zm2,4V26H19v2Zm3,5h4V45H12ZM10,47h8v1H10ZM8,50H20v2H8ZM6,54H58v2H6Zm54,6H4V58H60Z"/><path d="M50,34a1,1,0,0,0-1,1v8a1,1,0,0,0,2,0V35A1,1,0,0,0,50,34Z"/><path d="M32,18a4,4,0,1,1,4-4A4,4,0,0,1,32,18Zm0-6a2,2,0,1,0,2,2A2,2,0,0,0,32,12Z"/><path d="M32,51A12,12,0,1,1,44,39,12.013,12.013,0,0,1,32,51Zm0-22A10,10,0,1,0,42,39,10.011,10.011,0,0,0,32,29Z"/><path d="M36.618,39A3.983,3.983,0,0,0,34,32V31a1,1,0,0,0-2,0v1H30.983c0-.31.009-.657.017-.977A1,1,0,0,0,30.023,30,.975.975,0,0,0,29,30.977c-.01.417-.016.739-.02,1.023H27a1,1,0,0,0,0,2h1V44H27a1,1,0,0,0,0,2h2v1a1,1,0,0,0,2,0V46h1v1a1,1,0,0,0,2,0V46a3.983,3.983,0,0,0,2.618-7ZM36,36a2,2,0,0,1-2,2H30V34h4A2,2,0,0,1,36,36Zm-2,8H30V40h4a2,2,0,0,1,0,4Z"/></g></svg>
